HIERARCHY
ROOT Hips
{
  OFFSET 0 89.5177 0.535
  CHANNELS 6 Xposition Yposition Zposition Zrotation Xrotation Yrotation
  JOINT Spine
  {
    OFFSET 12.0259 -0.162855 1.69034e-005
    CHANNELS 3 Zrotation Xrotation Yrotation
    JOINT Spine1
    {
      OFFSET 15.3169 -0.0121922 0
      CHANNELS 3 Zrotation Xrotation Yrotation
      JOINT Spine2
      {
        OFFSET 15.3176 -0.0121908 0
        CHANNELS 3 Zrotation Xrotation Yrotation
        JOINT Neck
        {
          OFFSET 19.9142 1.56338 0
          CHANNELS 3 Zrotation Xrotation Yrotation
          JOINT Head
          {
            OFFSET 6.92651 0 0
            CHANNELS 3 Zrotation Xrotation Yrotation
            End Site
            {
              OFFSET 20.7666 0 0
            }
          }
          JOINT LeftShoulder
          {
            OFFSET -6.20654 0.708824 7.28219
            CHANNELS 3 Zrotation Xrotation Yrotation
            JOINT LeftArm
            {
              OFFSET 14.108 0 -1.52588e-005
              CHANNELS 3 Zrotation Xrotation Yrotation
              JOINT LeftForeArm
              {
                OFFSET 28.5802 0 0
                CHANNELS 3 Zrotation Xrotation Yrotation
                JOINT LeftHand
                {
                  OFFSET 27.092 0 0
                  CHANNELS 3 Zrotation Xrotation Yrotation
                  End Site
                  {
                    OFFSET 9.55928 -0.186424 0.145352
                  }
                }
              }
            }
          }
          JOINT RightShoulder
          {
            OFFSET -6.20654 0.708866 -7.28218
            CHANNELS 3 Zrotation Xrotation Yrotation
            JOINT RightArm
            {
              OFFSET 14.108 0 1.52588e-005
              CHANNELS 3 Zrotation Xrotation Yrotation
              JOINT RightForeArm
              {
                OFFSET 28.5802 0 0
                CHANNELS 3 Zrotation Xrotation Yrotation
                JOINT RightHand
                {
                  OFFSET 27.092 0 0
                  CHANNELS 3 Zrotation Xrotation Yrotation
                  End Site
                  {
                    OFFSET 9.55929 -0.186417 -0.145354
                  }
                }
              }
            }
          }
        }
      }
    }
  }
  JOINT LeftUpLeg
  {
    OFFSET 0.005 -0.535 8.837
    CHANNELS 3 Zrotation Xrotation Yrotation
    JOINT LeftLeg
    {
      OFFSET 39.9035 0 0
      CHANNELS 3 Zrotation Xrotation Yrotation
      JOINT LeftFoot
      {
        OFFSET 39.6689 0 0
        CHANNELS 3 Zrotation Xrotation Yrotation
        JOINT LeftToe
        {
          OFFSET 10.1624 13.6296 0
          CHANNELS 3 Zrotation Xrotation Yrotation
          End Site
          {
            OFFSET 8.38147 0 0
          }
        }
      }
    }
  }
  JOINT RightUpLeg
  {
    OFFSET 0.005 -0.535 -8.837
    CHANNELS 3 Zrotation Xrotation Yrotation
    JOINT RightLeg
    {
      OFFSET 39.9035 0 0
      CHANNELS 3 Zrotation Xrotation Yrotation
      JOINT RightFoot
      {
        OFFSET 39.6689 0 0
        CHANNELS 3 Zrotation Xrotation Yrotation
        JOINT RightToe
        {
          OFFSET 10.1624 13.6296 0
          CHANNELS 3 Zrotation Xrotation Yrotation
          End Site
          {
            OFFSET 8.38147 0 0
          }
        }
      }
    }
  }
}
MOTION
Frames:	7
Frame Time:	0.0333333
404.33 89.2407 17.4075 87.1928 -80.3741 -3.66686 0.565235 -0.56795 0.53352 1.13582 -1.13011 1.07286 1.13582 -1.13011 1.07285 -8.30708e-012 -9.0191e-006 -5.27751e-005 -12.4065 3.2254 -0.328814 -179.048 -7.34009 -82.5868 33.7442 -69.9309 31.1986 -1.47999 -1.59028e-015 -3.18055e-015 -57.1793 -15.0461 -44.3845 -179.951 1.42931 88.0477 50.4873 50.7518 -40.916 -18.0742 -9.54166e-015 1.19271e-015 -50.299 28.6181 50.7187 -1.93382 2.40346 -179.989 -17.1335 -1.59028e-015 -3.97569e-016 18.1801 10.4818 -4.71608 90 -2.01269e-015 9.93923e-016 1.7627 -0.906238 -178.097 -11.3503 -3.18056e-015 -3.97569e-016 12.4832 -8.44342 7.13591 90 9.93923e-017 -0 
404.41 89.234 17.3711 87.2912 -80.2789 -3.57808 0.579377 -0.587784 0.506273 1.16402 -1.16992 1.01871 1.16402 -1.16992 1.0187 -8.30788e-012 -9.0191e-006 -5.27751e-005 -13.8803 3.53601 -0.00987598 -179.018 -7.53999 -82.5566 33.7831 -70.156 31.3698 -1.52013 -3.18055e-015 -0 -57.0171 -15.0735 -44.2279 -179.947 1.41072 87.8499 50.8522 50.5493 -41.2918 -18.311 6.36111e-015 1.98785e-015 -50.276 28.6145 50.6524 -1.96889 2.38815 -179.912 -17.187 3.18055e-015 -3.97569e-016 18.192 10.5452 -4.78077 90 -1.49089e-016 -0 1.79128 -0.94345 -178.016 -11.3258 -1.59028e-015 -3.97569e-016 12.4893 -8.38745 7.06005 90 2.48481e-015 -3.18055e-015 
404.488 89.2326 17.3568 87.5768 -80.318 -3.29893 0.593455 -0.553368 0.502754 1.19183 -1.101 1.01145 1.19183 -1.101 1.01144 -8.30708e-012 -9.0191e-006 -5.27751e-005 -15.2234 3.58636 0.05163 -178.999 -7.56542 -82.4414 34.3736 -70.4151 32.0286 -1.50135 -7.95139e-015 3.18055e-015 -56.9827 -15.072 -44.1648 -179.942 1.48414 87.7603 51.0579 50.2903 -41.5223 -18.2998 -9.54166e-015 -3.57812e-015 -50.3903 28.6356 50.7592 -1.979 2.33395 -179.867 -17.102 -4.77083e-015 -1.98785e-015 18.1248 10.4361 -4.73147 90 -1.0312e-015 3.97569e-016 1.68351 -0.926998 -177.968 -11.4326 1.59028e-015 3.97569e-016 12.531 -8.40384 7.09065 90 1.98785e-016 -0 
404.564 89.2286 17.3387 87.9096 -80.4352 -3.00024 0.577928 -0.540505 0.477692 1.16042 -1.07567 0.961038 1.16042 -1.07567 0.961029 -8.30788e-012 -9.0191e-006 -5.27751e-005 -15.8654 3.58246 0.0697469 -178.98 -7.76349 -82.4945 35.5043 -70.5956 33.1656 -1.56708 -1.59028e-015 -0 -56.8556 -15.1863 -44.2499 -179.939 1.37921 87.4891 51.2427 50.237 -41.6854 -18.0463 9.54166e-015 -7.95139e-016 -50.3659 28.6004 50.608 -2.01055 2.42464 -179.786 -17.0707 -1.59028e-015 3.97569e-016 18.0651 10.4028 -4.74149 90 -1.73937e-016 -0 1.5049 -0.922482 -177.911 -11.6454 -1.59028e-015 -7.95139e-016 12.6187 -8.49523 7.22115 90 2.98177e-016 -0 
404.625 89.2265 17.3288 88.2225 -80.6027 -2.72128 0.577214 -0.51396 0.482274 1.1588 -1.02255 0.969923 1.1588 -1.02255 0.969914 -8.30867e-012 -9.0191e-006 -5.27751e-005 -16.2439 3.48065 -0.308415 -178.955 -7.90943 -82.4473 37.3223 -70.7241 34.98 -1.69985 -7.95139e-015 -3.18055e-015 -56.9605 -15.1543 -44.2902 -179.939 1.34966 87.4231 51.4337 50.1878 -42.0143 -17.8371 0 -2.78299e-015 -50.6121 28.5433 50.8389 -2.00094 2.42571 -179.736 -16.9605 -1.59028e-015 -3.97569e-016 17.9601 10.2586 -4.65728 90 2.48481e-017 -3.97569e-016 1.33189 -0.860823 -177.866 -11.8333 -3.18056e-015 -7.95139e-016 12.6866 -8.58491 7.34763 90 2.68359e-015 9.54166e-015 
404.671 89.2233 17.3098 88.4531 -80.7694 -2.51155 0.594534 -0.464325 0.50024 1.19316 -0.922945 1.00548 1.19316 -0.922945 1.00547 -8.30708e-012 -9.0191e-006 -5.27751e-005 -16.6214 3.07263 -1.08582 -178.957 -7.86691 -82.4232 40.0275 -70.7447 37.6234 -1.95904 4.77083e-015 6.36111e-015 -56.7355 -15.1098 -43.9633 -179.933 1.46993 87.3782 51.3638 50.1309 -42.1534 -17.7538 -6.36111e-015 7.95139e-016 -50.3657 28.778 50.807 -2.03484 2.5981 -179.679 -16.9847 0 -3.97569e-016 17.998 10.3016 -4.69848 90 -5.09386e-016 3.97569e-016 1.17628 -0.808127 -177.842 -12.0328 -4.77083e-015 -3.97569e-016 12.7697 -8.68359 7.47551 90 -6.95746e-016 -6.36111e-015 
404.697 89.2216 17.3051 88.5716 -80.8645 -2.41013 0.598488 -0.448977 0.515958 1.20105 -0.89205 1.03679 1.20105 -0.89205 1.03678 -8.30708e-012 -9.0191e-006 -5.27751e-005 -16.9657 2.82823 -1.63988 -178.916 -7.92624 -82.1895 40.8091 -70.565 38.3711 -1.88981 -1.59028e-015 6.36111e-015 -56.3492 -15.2481 -43.8525 -179.929 1.5358 87.3355 51.1372 50.0144 -42.1139 -17.791 0 -1.59028e-015 -50.2942 28.7723 50.7425 -2.01834 2.58783 -179.658 -16.921 1.59028e-015 -3.97569e-016 17.9606 10.1899 -4.61694 90 1.18028e-015 1.98785e-016 1.07259 -0.795479 -177.828 -12.1725 -3.18056e-015 -0 12.8256 -8.75803 7.57553 90 -5.96354e-016 3.18055e-015 
